<svg xmlns="http://www.w3.org/2000/svg" xmlns:xlink="http://www.w3.org/1999/xlink" width="468" zoomAndPan="magnify" viewBox="0 0 351 329.249999" height="439" preserveAspectRatio="xMidYMid meet" version="1.0"><defs><clipPath id="0f483d68b5"><path d="M 0.398438 0 L 350.601562 0 L 350.601562 328.5 L 0.398438 328.5 Z M 0.398438 0 " clip-rule="nonzero"/></clipPath><clipPath id="d19e021cd8"><path d="M 0.398438 0 L 350.601562 0 L 350.601562 316.527344 L 0.398438 316.527344 Z M 0.398438 0 " clip-rule="nonzero"/></clipPath></defs><g clip-path="url(#0f483d68b5)"><path fill="#ffffff" d="M 0.398438 0 L 350.601562 0 L 350.601562 335.984375 L 0.398438 335.984375 Z M 0.398438 0 " fill-opacity="1" fill-rule="nonzero"/><path fill="#ffffff" d="M 0.398438 0 L 350.601562 0 L 350.601562 328.5 L 0.398438 328.5 Z M 0.398438 0 " fill-opacity="1" fill-rule="nonzero"/><path fill="#ffffff" d="M 0.398438 0 L 350.601562 0 L 350.601562 328.5 L 0.398438 328.5 Z M 0.398438 0 " fill-opacity="1" fill-rule="nonzero"/></g><g clip-path="url(#d19e021cd8)"><path fill="#000000" d="M 342.226562 215.230469 L 334.085938 215.230469 L 334.085938 167.496094 C 334.085938 160.078125 326.242188 160.078125 326.242188 160.078125 L 236.019531 160.078125 C 236.019531 160.078125 228.175781 160.078125 228.175781 167.496094 L 228.175781 286.273438 C 228.175781 293.691406 236.019531 293.691406 236.019531 293.691406 L 297.859375 293.691406 L 297.859375 314.890625 L 234.832031 314.890625 C 234.832031 314.890625 220.035156 314.890625 220.035156 300.054688 L 220.035156 166.738281 C 220.035156 151.933594 234.832031 151.933594 234.832031 151.933594 L 327.429688 151.933594 C 327.429688 151.933594 342.226562 151.933594 342.226562 166.738281 Z M 301.023438 145.605469 L 285.203125 145.605469 L 285.203125 30.285156 C 285.203125 15.847656 271.0625 15.847656 271.0625 15.847656 L 30.363281 15.847656 C 30.363281 15.847656 16.222656 15.847656 16.222656 30.285156 L 16.222656 181.804688 C 16.222656 196.242188 30.363281 196.242188 30.363281 196.242188 L 212.417969 196.242188 L 212.417969 243.714844 L 29.042969 243.714844 C 29.042969 243.714844 0.398438 243.714844 0.398438 215.035156 L 0.398438 28.703125 C 0.398438 0.0234375 29.042969 0.0234375 29.042969 0.0234375 L 272.378906 0.0234375 C 272.378906 0.0234375 301.023438 0.0234375 301.023438 28.703125 Z M 212.417969 303.550781 L 212.417969 316.507812 L 85.839844 316.507812 L 114.320312 288.023438 L 114.320312 259.539062 L 130.011719 259.539062 L 130.011719 288.023438 L 120.550781 300.683594 L 190.695312 300.683594 L 177.609375 288.023438 L 177.609375 259.539062 L 193.433594 259.539062 L 193.433594 288.023438 Z M 281.277344 309.550781 C 284.34375 309.550781 286.851562 307.042969 286.851562 303.976562 C 286.851562 300.914062 284.34375 298.441406 281.277344 298.441406 C 278.214844 298.441406 275.707031 300.914062 275.707031 303.976562 C 275.707031 307.042969 278.214844 309.550781 281.277344 309.550781 Z M 314.769531 221.988281 L 341.996094 221.988281 C 341.996094 221.988281 350.371094 221.988281 350.371094 230.429688 L 350.371094 306.417969 C 350.371094 314.890625 341.996094 314.890625 341.996094 314.890625 L 314.769531 314.890625 C 314.769531 314.890625 306.398438 314.890625 306.398438 306.417969 L 306.398438 230.429688 C 306.398438 221.988281 314.769531 221.988281 314.769531 221.988281 Z M 311.277344 298.570312 L 345.492188 298.570312 L 345.492188 231.78125 L 311.277344 231.78125 Z M 329.175781 311.625 C 330.988281 311.625 332.4375 310.144531 332.4375 308.363281 C 332.4375 306.550781 330.988281 305.097656 329.175781 305.097656 C 327.394531 305.097656 325.945312 306.550781 325.945312 308.363281 C 325.945312 310.144531 327.394531 311.625 329.175781 311.625 Z M 321.066406 225.253906 C 320.144531 225.253906 319.417969 226.011719 319.417969 226.902344 C 319.417969 227.792969 320.175781 228.515625 321.066406 228.515625 L 335.667969 228.515625 C 336.589844 228.515625 337.351562 227.757812 337.351562 226.902344 C 337.351562 225.980469 336.558594 225.253906 335.667969 225.253906 Z M 321.066406 225.253906 " fill-opacity="1" fill-rule="evenodd"/></g></svg>