<svg xmlns="http://www.w3.org/2000/svg" xmlns:xlink="http://www.w3.org/1999/xlink" width="500" zoomAndPan="magnify" viewBox="0 0 375 374.999991" height="500" preserveAspectRatio="xMidYMid meet" version="1.0"><defs><g/><clipPath id="c44bae4a83"><path d="M 227 106 L 255.964844 106 L 255.964844 197 L 227 197 Z M 227 106 " clip-rule="nonzero"/></clipPath><clipPath id="e26e2aaf53"><path d="M 187.621094 70.488281 L 187.332031 70.378906 L 187.039062 70.488281 L 118.878906 96.175781 L 119.015625 102.234375 C 119.277344 113.894531 120.847656 125.371094 123.722656 136.671875 C 126.59375 147.972656 130.703125 158.804688 136.039062 169.167969 C 141.375 179.535156 147.808594 189.167969 155.335938 198.066406 C 162.863281 206.964844 171.292969 214.90625 180.625 221.886719 L 187.039062 226.683594 L 187.039062 227.121094 L 187.332031 226.898438 L 187.621094 227.121094 L 187.621094 226.683594 L 194.039062 221.886719 C 203.371094 214.90625 211.800781 206.964844 219.328125 198.066406 C 226.855469 189.167969 233.289062 179.535156 238.625 169.167969 C 243.960938 158.804688 248.066406 147.972656 250.941406 136.671875 C 253.816406 125.371094 255.382812 113.894531 255.648438 102.234375 L 255.785156 96.175781 Z M 187.621094 70.488281 " clip-rule="nonzero"/></clipPath><clipPath id="4b00000a3a"><path d="M 136 179 L 239 179 L 239 227.128906 L 136 227.128906 Z M 136 179 " clip-rule="nonzero"/></clipPath><clipPath id="dbe281c5e6"><path d="M 187.621094 70.488281 L 187.332031 70.378906 L 187.039062 70.488281 L 118.878906 96.175781 L 119.015625 102.234375 C 119.277344 113.894531 120.847656 125.371094 123.722656 136.671875 C 126.59375 147.972656 130.703125 158.804688 136.039062 169.167969 C 141.375 179.535156 147.808594 189.167969 155.335938 198.066406 C 162.863281 206.964844 171.292969 214.90625 180.625 221.886719 L 187.039062 226.683594 L 187.039062 227.121094 L 187.332031 226.898438 L 187.621094 227.121094 L 187.621094 226.683594 L 194.039062 221.886719 C 203.371094 214.90625 211.800781 206.964844 219.328125 198.066406 C 226.855469 189.167969 233.289062 179.535156 238.625 169.167969 C 243.960938 158.804688 248.066406 147.972656 250.941406 136.671875 C 253.816406 125.371094 255.382812 113.894531 255.648438 102.234375 L 255.785156 96.175781 Z M 187.621094 70.488281 " clip-rule="nonzero"/></clipPath><clipPath id="fdecc11e90"><path d="M 217 91 L 255.964844 91 L 255.964844 110 L 217 110 Z M 217 91 " clip-rule="nonzero"/></clipPath><clipPath id="d64d530b53"><path d="M 187.621094 70.488281 L 187.332031 70.378906 L 187.039062 70.488281 L 118.878906 96.175781 L 119.015625 102.234375 C 119.277344 113.894531 120.847656 125.371094 123.722656 136.671875 C 126.59375 147.972656 130.703125 158.804688 136.039062 169.167969 C 141.375 179.535156 147.808594 189.167969 155.335938 198.066406 C 162.863281 206.964844 171.292969 214.90625 180.625 221.886719 L 187.039062 226.683594 L 187.039062 227.121094 L 187.332031 226.898438 L 187.621094 227.121094 L 187.621094 226.683594 L 194.039062 221.886719 C 203.371094 214.90625 211.800781 206.964844 219.328125 198.066406 C 226.855469 189.167969 233.289062 179.535156 238.625 169.167969 C 243.960938 158.804688 248.066406 147.972656 250.941406 136.671875 C 253.816406 125.371094 255.382812 113.894531 255.648438 102.234375 L 255.785156 96.175781 Z M 187.621094 70.488281 " clip-rule="nonzero"/></clipPath><clipPath id="adfd9a551a"><path d="M 173 162 L 202 162 L 202 196 L 173 196 Z M 173 162 " clip-rule="nonzero"/></clipPath><clipPath id="8ce7ab733d"><path d="M 187.621094 70.488281 L 187.332031 70.378906 L 187.039062 70.488281 L 118.878906 96.175781 L 119.015625 102.234375 C 119.277344 113.894531 120.847656 125.371094 123.722656 136.671875 C 126.59375 147.972656 130.703125 158.804688 136.039062 169.167969 C 141.375 179.535156 147.808594 189.167969 155.335938 198.066406 C 162.863281 206.964844 171.292969 214.90625 180.625 221.886719 L 187.039062 226.683594 L 187.039062 227.121094 L 187.332031 226.898438 L 187.621094 227.121094 L 187.621094 226.683594 L 194.039062 221.886719 C 203.371094 214.90625 211.800781 206.964844 219.328125 198.066406 C 226.855469 189.167969 233.289062 179.535156 238.625 169.167969 C 243.960938 158.804688 248.066406 147.972656 250.941406 136.671875 C 253.816406 125.371094 255.382812 113.894531 255.648438 102.234375 L 255.785156 96.175781 Z M 187.621094 70.488281 " clip-rule="nonzero"/></clipPath><clipPath id="22c3f3387b"><path d="M 191 163 L 218 163 L 218 215 L 191 215 Z M 191 163 " clip-rule="nonzero"/></clipPath><clipPath id="00cf27c70c"><path d="M 187.621094 70.488281 L 187.332031 70.378906 L 187.039062 70.488281 L 118.878906 96.175781 L 119.015625 102.234375 C 119.277344 113.894531 120.847656 125.371094 123.722656 136.671875 C 126.59375 147.972656 130.703125 158.804688 136.039062 169.167969 C 141.375 179.535156 147.808594 189.167969 155.335938 198.066406 C 162.863281 206.964844 171.292969 214.90625 180.625 221.886719 L 187.039062 226.683594 L 187.039062 227.121094 L 187.332031 226.898438 L 187.621094 227.121094 L 187.621094 226.683594 L 194.039062 221.886719 C 203.371094 214.90625 211.800781 206.964844 219.328125 198.066406 C 226.855469 189.167969 233.289062 179.535156 238.625 169.167969 C 243.960938 158.804688 248.066406 147.972656 250.941406 136.671875 C 253.816406 125.371094 255.382812 113.894531 255.648438 102.234375 L 255.785156 96.175781 Z M 187.621094 70.488281 " clip-rule="nonzero"/></clipPath><clipPath id="7cbfd73c45"><path d="M 223 133 L 235 133 L 235 185 L 223 185 Z M 223 133 " clip-rule="nonzero"/></clipPath><clipPath id="16c4e71cfb"><path d="M 187.621094 70.488281 L 187.332031 70.378906 L 187.039062 70.488281 L 118.878906 96.175781 L 119.015625 102.234375 C 119.277344 113.894531 120.847656 125.371094 123.722656 136.671875 C 126.59375 147.972656 130.703125 158.804688 136.039062 169.167969 C 141.375 179.535156 147.808594 189.167969 155.335938 198.066406 C 162.863281 206.964844 171.292969 214.90625 180.625 221.886719 L 187.039062 226.683594 L 187.039062 227.121094 L 187.332031 226.898438 L 187.621094 227.121094 L 187.621094 226.683594 L 194.039062 221.886719 C 203.371094 214.90625 211.800781 206.964844 219.328125 198.066406 C 226.855469 189.167969 233.289062 179.535156 238.625 169.167969 C 243.960938 158.804688 248.066406 147.972656 250.941406 136.671875 C 253.816406 125.371094 255.382812 113.894531 255.648438 102.234375 L 255.785156 96.175781 Z M 187.621094 70.488281 " clip-rule="nonzero"/></clipPath><clipPath id="e44aca43c9"><path d="M 229 127 L 249 127 L 249 187 L 229 187 Z M 229 127 " clip-rule="nonzero"/></clipPath><clipPath id="1fa807f386"><path d="M 187.621094 70.488281 L 187.332031 70.378906 L 187.039062 70.488281 L 118.878906 96.175781 L 119.015625 102.234375 C 119.277344 113.894531 120.847656 125.371094 123.722656 136.671875 C 126.59375 147.972656 130.703125 158.804688 136.039062 169.167969 C 141.375 179.535156 147.808594 189.167969 155.335938 198.066406 C 162.863281 206.964844 171.292969 214.90625 180.625 221.886719 L 187.039062 226.683594 L 187.039062 227.121094 L 187.332031 226.898438 L 187.621094 227.121094 L 187.621094 226.683594 L 194.039062 221.886719 C 203.371094 214.90625 211.800781 206.964844 219.328125 198.066406 C 226.855469 189.167969 233.289062 179.535156 238.625 169.167969 C 243.960938 158.804688 248.066406 147.972656 250.941406 136.671875 C 253.816406 125.371094 255.382812 113.894531 255.648438 102.234375 L 255.785156 96.175781 Z M 187.621094 70.488281 " clip-rule="nonzero"/></clipPath><clipPath id="a90a7ebc9e"><path d="M 217 81 L 255.964844 81 L 255.964844 92 L 217 92 Z M 217 81 " clip-rule="nonzero"/></clipPath><clipPath id="74506cafe5"><path d="M 187.621094 70.488281 L 187.332031 70.378906 L 187.039062 70.488281 L 118.878906 96.175781 L 119.015625 102.234375 C 119.277344 113.894531 120.847656 125.371094 123.722656 136.671875 C 126.59375 147.972656 130.703125 158.804688 136.039062 169.167969 C 141.375 179.535156 147.808594 189.167969 155.335938 198.066406 C 162.863281 206.964844 171.292969 214.90625 180.625 221.886719 L 187.039062 226.683594 L 187.039062 227.121094 L 187.332031 226.898438 L 187.621094 227.121094 L 187.621094 226.683594 L 194.039062 221.886719 C 203.371094 214.90625 211.800781 206.964844 219.328125 198.066406 C 226.855469 189.167969 233.289062 179.535156 238.625 169.167969 C 243.960938 158.804688 248.066406 147.972656 250.941406 136.671875 C 253.816406 125.371094 255.382812 113.894531 255.648438 102.234375 L 255.785156 96.175781 Z M 187.621094 70.488281 " clip-rule="nonzero"/></clipPath><clipPath id="d809b546d6"><path d="M 124 70.378906 L 250 70.378906 L 250 88 L 124 88 Z M 124 70.378906 " clip-rule="nonzero"/></clipPath><clipPath id="06d5c26c9a"><path d="M 187.621094 70.488281 L 187.332031 70.378906 L 187.039062 70.488281 L 118.878906 96.175781 L 119.015625 102.234375 C 119.277344 113.894531 120.847656 125.371094 123.722656 136.671875 C 126.59375 147.972656 130.703125 158.804688 136.039062 169.167969 C 141.375 179.535156 147.808594 189.167969 155.335938 198.066406 C 162.863281 206.964844 171.292969 214.90625 180.625 221.886719 L 187.039062 226.683594 L 187.039062 227.121094 L 187.332031 226.898438 L 187.621094 227.121094 L 187.621094 226.683594 L 194.039062 221.886719 C 203.371094 214.90625 211.800781 206.964844 219.328125 198.066406 C 226.855469 189.167969 233.289062 179.535156 238.625 169.167969 C 243.960938 158.804688 248.066406 147.972656 250.941406 136.671875 C 253.816406 125.371094 255.382812 113.894531 255.648438 102.234375 L 255.785156 96.175781 Z M 187.621094 70.488281 " clip-rule="nonzero"/></clipPath><clipPath id="2ba81ef04f"><path d="M 118.878906 91 L 158 91 L 158 110 L 118.878906 110 Z M 118.878906 91 " clip-rule="nonzero"/></clipPath><clipPath id="b269d94596"><path d="M 187.621094 70.488281 L 187.332031 70.378906 L 187.039062 70.488281 L 118.878906 96.175781 L 119.015625 102.234375 C 119.277344 113.894531 120.847656 125.371094 123.722656 136.671875 C 126.59375 147.972656 130.703125 158.804688 136.039062 169.167969 C 141.375 179.535156 147.808594 189.167969 155.335938 198.066406 C 162.863281 206.964844 171.292969 214.90625 180.625 221.886719 L 187.039062 226.683594 L 187.039062 227.121094 L 187.332031 226.898438 L 187.621094 227.121094 L 187.621094 226.683594 L 194.039062 221.886719 C 203.371094 214.90625 211.800781 206.964844 219.328125 198.066406 C 226.855469 189.167969 233.289062 179.535156 238.625 169.167969 C 243.960938 158.804688 248.066406 147.972656 250.941406 136.671875 C 253.816406 125.371094 255.382812 113.894531 255.648438 102.234375 L 255.785156 96.175781 Z M 187.621094 70.488281 " clip-rule="nonzero"/></clipPath><clipPath id="beceeef0dd"><path d="M 156 163 L 184 163 L 184 215 L 156 215 Z M 156 163 " clip-rule="nonzero"/></clipPath><clipPath id="9abbd39789"><path d="M 187.621094 70.488281 L 187.332031 70.378906 L 187.039062 70.488281 L 118.878906 96.175781 L 119.015625 102.234375 C 119.277344 113.894531 120.847656 125.371094 123.722656 136.671875 C 126.59375 147.972656 130.703125 158.804688 136.039062 169.167969 C 141.375 179.535156 147.808594 189.167969 155.335938 198.066406 C 162.863281 206.964844 171.292969 214.90625 180.625 221.886719 L 187.039062 226.683594 L 187.039062 227.121094 L 187.332031 226.898438 L 187.621094 227.121094 L 187.621094 226.683594 L 194.039062 221.886719 C 203.371094 214.90625 211.800781 206.964844 219.328125 198.066406 C 226.855469 189.167969 233.289062 179.535156 238.625 169.167969 C 243.960938 158.804688 248.066406 147.972656 250.941406 136.671875 C 253.816406 125.371094 255.382812 113.894531 255.648438 102.234375 L 255.785156 96.175781 Z M 187.621094 70.488281 " clip-rule="nonzero"/></clipPath><clipPath id="95a80fc63c"><path d="M 140 133 L 152 133 L 152 185 L 140 185 Z M 140 133 " clip-rule="nonzero"/></clipPath><clipPath id="80cb989240"><path d="M 187.621094 70.488281 L 187.332031 70.378906 L 187.039062 70.488281 L 118.878906 96.175781 L 119.015625 102.234375 C 119.277344 113.894531 120.847656 125.371094 123.722656 136.671875 C 126.59375 147.972656 130.703125 158.804688 136.039062 169.167969 C 141.375 179.535156 147.808594 189.167969 155.335938 198.066406 C 162.863281 206.964844 171.292969 214.90625 180.625 221.886719 L 187.039062 226.683594 L 187.039062 227.121094 L 187.332031 226.898438 L 187.621094 227.121094 L 187.621094 226.683594 L 194.039062 221.886719 C 203.371094 214.90625 211.800781 206.964844 219.328125 198.066406 C 226.855469 189.167969 233.289062 179.535156 238.625 169.167969 C 243.960938 158.804688 248.066406 147.972656 250.941406 136.671875 C 253.816406 125.371094 255.382812 113.894531 255.648438 102.234375 L 255.785156 96.175781 Z M 187.621094 70.488281 " clip-rule="nonzero"/></clipPath><clipPath id="4cab3a8619"><path d="M 126 127 L 146 127 L 146 187 L 126 187 Z M 126 127 " clip-rule="nonzero"/></clipPath><clipPath id="d4670108ec"><path d="M 187.621094 70.488281 L 187.332031 70.378906 L 187.039062 70.488281 L 118.878906 96.175781 L 119.015625 102.234375 C 119.277344 113.894531 120.847656 125.371094 123.722656 136.671875 C 126.59375 147.972656 130.703125 158.804688 136.039062 169.167969 C 141.375 179.535156 147.808594 189.167969 155.335938 198.066406 C 162.863281 206.964844 171.292969 214.90625 180.625 221.886719 L 187.039062 226.683594 L 187.039062 227.121094 L 187.332031 226.898438 L 187.621094 227.121094 L 187.621094 226.683594 L 194.039062 221.886719 C 203.371094 214.90625 211.800781 206.964844 219.328125 198.066406 C 226.855469 189.167969 233.289062 179.535156 238.625 169.167969 C 243.960938 158.804688 248.066406 147.972656 250.941406 136.671875 C 253.816406 125.371094 255.382812 113.894531 255.648438 102.234375 L 255.785156 96.175781 Z M 187.621094 70.488281 " clip-rule="nonzero"/></clipPath><clipPath id="36911b88b1"><path d="M 118.878906 81 L 158 81 L 158 92 L 118.878906 92 Z M 118.878906 81 " clip-rule="nonzero"/></clipPath><clipPath id="98e5a5aa77"><path d="M 187.621094 70.488281 L 187.332031 70.378906 L 187.039062 70.488281 L 118.878906 96.175781 L 119.015625 102.234375 C 119.277344 113.894531 120.847656 125.371094 123.722656 136.671875 C 126.59375 147.972656 130.703125 158.804688 136.039062 169.167969 C 141.375 179.535156 147.808594 189.167969 155.335938 198.066406 C 162.863281 206.964844 171.292969 214.90625 180.625 221.886719 L 187.039062 226.683594 L 187.039062 227.121094 L 187.332031 226.898438 L 187.621094 227.121094 L 187.621094 226.683594 L 194.039062 221.886719 C 203.371094 214.90625 211.800781 206.964844 219.328125 198.066406 C 226.855469 189.167969 233.289062 179.535156 238.625 169.167969 C 243.960938 158.804688 248.066406 147.972656 250.941406 136.671875 C 253.816406 125.371094 255.382812 113.894531 255.648438 102.234375 L 255.785156 96.175781 Z M 187.621094 70.488281 " clip-rule="nonzero"/></clipPath><clipPath id="e5c23e9f34"><path d="M 118.878906 106 L 147 106 L 147 197 L 118.878906 197 Z M 118.878906 106 " clip-rule="nonzero"/></clipPath><clipPath id="f1f8612979"><path d="M 187.621094 70.488281 L 187.332031 70.378906 L 187.039062 70.488281 L 118.878906 96.175781 L 119.015625 102.234375 C 119.277344 113.894531 120.847656 125.371094 123.722656 136.671875 C 126.59375 147.972656 130.703125 158.804688 136.039062 169.167969 C 141.375 179.535156 147.808594 189.167969 155.335938 198.066406 C 162.863281 206.964844 171.292969 214.90625 180.625 221.886719 L 187.039062 226.683594 L 187.039062 227.121094 L 187.332031 226.898438 L 187.621094 227.121094 L 187.621094 226.683594 L 194.039062 221.886719 C 203.371094 214.90625 211.800781 206.964844 219.328125 198.066406 C 226.855469 189.167969 233.289062 179.535156 238.625 169.167969 C 243.960938 158.804688 248.066406 147.972656 250.941406 136.671875 C 253.816406 125.371094 255.382812 113.894531 255.648438 102.234375 L 255.785156 96.175781 Z M 187.621094 70.488281 " clip-rule="nonzero"/></clipPath></defs><rect x="-37.5" width="450" fill="#ffffff" y="-37.499999" height="449.999989" fill-opacity="1"/><rect x="-37.5" width="450" fill="#ffffff" y="-37.499999" height="449.999989" fill-opacity="1"/><rect x="-37.5" width="450" fill="#000000" y="-37.499999" height="449.999989" fill-opacity="1"/><g clip-path="url(#c44bae4a83)"><g clip-path="url(#e26e2aaf53)"><path fill="#f8b571" d="M 274.472656 133.90625 C 268.921875 120.496094 258.539062 113.433594 244.304688 111.648438 C 238.695312 110.949219 232.871094 110.917969 227.71875 106.886719 C 228.96875 110.917969 230.746094 114.695312 233.058594 118.222656 C 235.695312 122.464844 238.722656 126.4375 241.722656 130.417969 C 246.980469 137.21875 250.882812 144.722656 253.4375 152.933594 C 254.082031 156.648438 254.753906 160.363281 255.453125 164.082031 L 255.453125 176.863281 C 254.679688 183.398438 253.308594 189.808594 251.347656 196.089844 C 251.835938 195.886719 252.058594 195.859375 252.183594 195.730469 C 255.289062 192.527344 257.847656 188.929688 259.863281 184.941406 C 261.875 180.957031 263.246094 176.761719 263.984375 172.355469 C 264.273438 170.695312 263.878906 168.945312 264.671875 167.375 C 265.210938 164.382812 265.210938 161.390625 264.671875 158.398438 C 263.972656 157.167969 264.449219 155.789062 264.226562 154.515625 C 263.519531 148.28125 261.121094 142.589844 258.296875 136.878906 C 259.402344 137.019531 260.332031 137.5 261.09375 138.316406 C 269.582031 145.609375 272.242188 155.621094 273.882812 166.695312 C 274.839844 163.75 275.570312 160.753906 276.085938 157.699219 C 277.433594 149.640625 277.648438 141.578125 274.472656 133.90625 Z M 274.472656 133.90625 " fill-opacity="1" fill-rule="nonzero"/></g></g><g clip-path="url(#4b00000a3a)"><g clip-path="url(#dbe281c5e6)"><path fill="#f8b571" d="M 232.890625 186.515625 C 227.476562 192.722656 220.976562 197.683594 214.453125 202.648438 C 207.011719 208.339844 199.289062 213.679688 192.648438 220.351562 C 190.714844 222.25 188.933594 224.285156 187.300781 226.449219 C 185.671875 224.285156 183.890625 222.25 181.957031 220.351562 C 175.316406 213.679688 167.59375 208.339844 160.152344 202.648438 C 153.660156 197.683594 147.15625 192.722656 141.714844 186.515625 C 139.839844 184.3125 138.089844 182.019531 136.464844 179.628906 C 136.296875 185.066406 137.230469 190.308594 139.257812 195.351562 C 142.226562 203.121094 147.535156 209.066406 153.746094 214.339844 C 158.25 218.226562 163.042969 221.652344 167.730469 225.246094 C 175.695312 231.335938 182.160156 238.601562 185.625 248.1875 C 186.070312 249.410156 186.449219 250.664062 186.828125 251.964844 L 186.828125 255.101562 L 186.953125 255.316406 C 187.109375 254.828125 187.246094 254.34375 187.378906 253.878906 C 187.515625 254.351562 187.652344 254.847656 187.808594 255.316406 L 187.933594 255.101562 L 187.933594 251.992188 C 188.3125 250.691406 188.691406 249.4375 189.136719 248.214844 C 192.601562 238.628906 199.0625 231.363281 207.03125 225.277344 C 211.726562 221.683594 216.511719 218.207031 221.023438 214.371094 C 227.226562 209.097656 232.53125 203.121094 235.503906 195.382812 C 237.496094 190.328125 238.390625 185.089844 238.191406 179.660156 C 236.546875 182.039062 234.78125 184.324219 232.890625 186.515625 Z M 232.890625 186.515625 " fill-opacity="1" fill-rule="nonzero"/></g></g><g clip-path="url(#fdecc11e90)"><g clip-path="url(#d64d530b53)"><path fill="#f8b571" d="M 246.15625 92.582031 C 236.707031 90.53125 227.535156 92.347656 218.453125 94.933594 C 217.394531 95.234375 217.480469 95.710938 218.007812 96.496094 C 219.6875 98.878906 221.835938 100.71875 224.449219 102.011719 C 228.207031 103.886719 232.269531 104.488281 236.386719 104.925781 C 244.488281 105.75 252.746094 105.75 260.8125 109.453125 C 260.34375 107.742188 260.054688 106.539062 259.675781 105.34375 C 257.492188 98.621094 253.152344 94.097656 246.15625 92.582031 Z M 246.15625 92.582031 " fill-opacity="1" fill-rule="nonzero"/></g></g><g clip-path="url(#adfd9a551a)"><g clip-path="url(#8ce7ab733d)"><path fill="#f8b571" d="M 196.511719 176.164062 C 197.125 178.472656 190.273438 189.757812 190.515625 191.082031 C 192.6875 188.867188 201.761719 179.425781 201.09375 171.539062 C 201.035156 170.792969 201.539062 169.976562 200.265625 169.722656 C 197.160156 169.121094 194.765625 167.1875 192.339844 165.324219 C 191.027344 164.207031 189.535156 163.4375 187.867188 163.011719 L 187.867188 162.886719 L 186.757812 162.886719 L 186.757812 163.011719 C 185.089844 163.4375 183.597656 164.207031 182.285156 165.324219 C 179.859375 167.1875 177.433594 169.121094 174.359375 169.722656 C 173.085938 169.976562 173.4375 170.792969 173.53125 171.539062 C 173.773438 173.617188 176.296875 184.339844 182.160156 187.078125 C 179.917969 182.960938 177.800781 177.890625 178.113281 176.152344 C 178.816406 178.628906 180.050781 180.800781 181.820312 182.667969 C 182.554688 183.515625 183.179688 184.4375 183.695312 185.433594 C 184.210938 186.425781 184.601562 187.46875 184.871094 188.558594 C 185.136719 189.644531 185.273438 190.75 185.28125 191.871094 C 185.285156 192.992188 185.160156 194.097656 184.90625 195.1875 C 185.109375 195.199219 195.367188 181.640625 196.511719 176.164062 Z M 196.511719 176.164062 " fill-opacity="1" fill-rule="nonzero"/></g></g><g clip-path="url(#22c3f3387b)"><g clip-path="url(#00cf27c70c)"><path fill="#f8b571" d="M 205.507812 199.035156 C 209.757812 195.441406 213.472656 191.46875 215.6875 186.195312 C 218.65625 179.132812 218.714844 169.179688 215.5625 163.234375 C 215.484375 163.34375 215.367188 163.441406 215.335938 163.558594 C 215.25 163.945312 215.203125 164.34375 215.132812 164.730469 C 214.703125 167.847656 213.882812 170.855469 212.667969 173.757812 C 211.449219 176.660156 209.882812 179.355469 207.960938 181.84375 C 205.148438 185.378906 202.070312 188.710938 199.132812 192.140625 C 193.726562 198.441406 191.71875 205.890625 191.660156 214.117188 C 191.910156 214.050781 192.105469 214.058594 192.144531 213.980469 C 195.367188 207.871094 200.394531 203.433594 205.507812 199.035156 Z M 205.507812 199.035156 " fill-opacity="1" fill-rule="nonzero"/></g></g><g clip-path="url(#7cbfd73c45)"><g clip-path="url(#16c4e71cfb)"><path fill="#f8b571" d="M 225.148438 184.574219 C 225.402344 184.445312 225.554688 184.417969 225.625 184.320312 C 226.371094 183.347656 227.128906 182.289062 227.847656 181.25 C 234.8125 171.335938 236.453125 160.722656 232.066406 149.289062 C 230.125 144.277344 227.640625 139.480469 226.488281 133.945312 C 226.148438 134.265625 226.023438 134.332031 225.972656 134.441406 C 225.789062 134.9375 225.625 135.410156 225.441406 135.9375 C 224.214844 139.339844 223.488281 142.84375 223.257812 146.457031 C 223.027344 150.066406 223.304688 153.636719 224.089844 157.167969 C 225.496094 163.878906 226.90625 170.578125 226.332031 177.5625 C 226.136719 179.882812 225.429688 182.144531 225.148438 184.574219 Z M 225.148438 184.574219 " fill-opacity="1" fill-rule="nonzero"/></g></g><g clip-path="url(#e44aca43c9)"><g clip-path="url(#1fa807f386)"><path fill="#f8b571" d="M 229.5625 127.207031 C 239.871094 146.066406 246.59375 165.148438 242.742188 186.554688 C 253.851562 164.1875 247.410156 143.046875 229.5625 127.207031 Z M 229.5625 127.207031 " fill-opacity="1" fill-rule="nonzero"/></g></g><g clip-path="url(#a90a7ebc9e)"><g clip-path="url(#74506cafe5)"><path fill="#f8b571" d="M 217.511719 91.484375 C 230.359375 85.523438 243.03125 84.335938 255.785156 91.136719 C 250.933594 84.746094 244.613281 81.289062 236.503906 81.238281 C 229.292969 81.191406 220.703125 85.917969 217.511719 91.484375 Z M 217.511719 91.484375 " fill-opacity="1" fill-rule="nonzero"/></g></g><g clip-path="url(#d809b546d6)"><g clip-path="url(#06d5c26c9a)"><path fill="#f8b571" d="M 249.777344 75.578125 C 246.945312 75.578125 244.3125 75.507812 241.683594 75.578125 C 232.6875 75.867188 224.488281 78.832031 216.804688 83.347656 C 215.847656 83.921875 214.820312 84.328125 213.730469 84.5625 C 212.636719 84.796875 211.535156 84.847656 210.425781 84.714844 C 207.835938 84.472656 205.246094 84.511719 202.664062 84.832031 C 203.734375 83.191406 205.050781 81.785156 206.613281 80.609375 C 204.394531 81.484375 202.644531 82.933594 201.363281 84.949219 C 199.390625 85.265625 197.449219 85.71875 195.542969 86.308594 C 196.511719 83.714844 199.792969 81.289062 199.917969 81.199219 C 197.007812 82.121094 194.980469 85.035156 193.941406 86.804688 L 192.097656 87.453125 C 190.464844 88.066406 190.019531 87.804688 189.621094 86.164062 C 189.101562 84.082031 188.355469 82.082031 187.378906 80.171875 C 186.40625 82.082031 185.660156 84.082031 185.136719 86.164062 C 184.742188 87.804688 184.292969 88.105469 182.664062 87.453125 L 181.101562 86.890625 C 180.023438 85.105469 178.015625 82.421875 175.28125 81.539062 C 175.394531 81.628906 178.433594 83.898438 179.550781 86.394531 C 177.714844 85.832031 175.851562 85.390625 173.960938 85.066406 C 172.789062 83.441406 171.273438 82.269531 169.410156 81.550781 C 170.675781 82.507812 171.792969 83.613281 172.765625 84.871094 C 169.933594 84.46875 167.09375 84.398438 164.246094 84.65625 C 163.136719 84.789062 162.035156 84.738281 160.945312 84.503906 C 159.851562 84.269531 158.828125 83.863281 157.871094 83.289062 C 150.175781 78.839844 141.976562 75.878906 132.980469 75.585938 C 130.347656 75.507812 127.71875 75.585938 124.886719 75.585938 C 126.605469 73.773438 128.609375 72.363281 130.894531 71.351562 C 137.316406 68.351562 143.894531 68.546875 150.613281 69.847656 C 153.8125 70.457031 156.898438 71.457031 160.074219 72.226562 C 155.328125 67.261719 149.417969 64.554688 142.90625 62.902344 C 156.492188 61.136719 167.679688 66.320312 177.839844 74.808594 C 173.84375 67.332031 167.167969 63.273438 159.5 60.242188 C 159.925781 59.96875 160.035156 59.851562 160.152344 59.832031 C 160.539062 59.765625 160.9375 59.726562 161.335938 59.679688 C 163.453125 59.445312 165.574219 59.429688 167.699219 59.628906 C 169.820312 59.832031 171.902344 60.25 173.9375 60.882812 C 175.972656 61.515625 177.925781 62.347656 179.789062 63.378906 C 181.65625 64.414062 183.398438 65.628906 185.011719 67.019531 C 185.683594 67.574219 186.167969 67.789062 186.777344 67.613281 L 186.777344 67.03125 L 186.972656 67.15625 L 187.332031 67.378906 L 187.691406 67.15625 L 187.886719 67.03125 L 187.886719 67.613281 C 188.496094 67.789062 188.980469 67.613281 189.652344 67.019531 C 191.269531 65.625 193.015625 64.414062 194.882812 63.378906 C 196.753906 62.34375 198.710938 61.511719 200.75 60.882812 C 202.792969 60.253906 204.875 59.835938 207.003906 59.636719 C 209.128906 59.4375 211.253906 59.457031 213.378906 59.699219 C 213.773438 59.746094 214.171875 59.785156 214.5625 59.851562 C 214.679688 59.851562 214.785156 59.988281 215.210938 60.261719 C 207.527344 63.253906 200.867188 67.3125 196.871094 74.828125 C 206.984375 66.339844 218.21875 61.15625 231.757812 62.921875 C 225.246094 64.554688 219.335938 67.261719 214.589844 72.226562 C 217.761719 71.457031 220.859375 70.457031 224.050781 69.847656 C 230.765625 68.546875 237.40625 68.351562 243.769531 71.351562 C 246.054688 72.359375 248.054688 73.769531 249.777344 75.578125 Z M 249.777344 75.578125 " fill-opacity="1" fill-rule="nonzero"/></g></g><g clip-path="url(#2ba81ef04f)"><g clip-path="url(#b269d94596)"><path fill="#f8b571" d="M 150.214844 102.011719 C 152.828125 100.71875 154.976562 98.878906 156.65625 96.496094 C 157.21875 95.710938 157.269531 95.234375 156.210938 94.933594 C 147.128906 92.347656 137.957031 90.53125 128.503906 92.582031 C 121.507812 94.097656 117.171875 98.621094 114.996094 105.34375 C 114.621094 106.527344 114.328125 107.742188 113.863281 109.453125 C 121.917969 105.742188 130.175781 105.742188 138.289062 104.917969 C 142.390625 104.488281 146.457031 103.886719 150.214844 102.011719 Z M 150.214844 102.011719 " fill-opacity="1" fill-rule="nonzero"/></g></g><g clip-path="url(#beceeef0dd)"><g clip-path="url(#9abbd39789)"><path fill="#f8b571" d="M 166.699219 181.84375 C 164.78125 179.355469 163.210938 176.660156 161.996094 173.757812 C 160.78125 170.855469 159.957031 167.847656 159.53125 164.730469 C 159.472656 164.34375 159.414062 163.945312 159.324219 163.558594 C 159.324219 163.441406 159.179688 163.34375 159.101562 163.234375 C 155.949219 169.179688 156.007812 179.132812 158.976562 186.195312 C 161.1875 191.46875 164.90625 195.441406 169.15625 199.035156 C 174.300781 203.386719 179.296875 207.871094 182.527344 213.941406 C 182.527344 214.019531 182.761719 214.011719 183.011719 214.078125 C 182.945312 205.890625 180.9375 198.441406 175.53125 192.140625 C 172.589844 188.710938 169.515625 185.378906 166.699219 181.84375 Z M 166.699219 181.84375 " fill-opacity="1" fill-rule="nonzero"/></g></g><g clip-path="url(#95a80fc63c)"><g clip-path="url(#80cb989240)"><path fill="#f8b571" d="M 149.222656 135.9375 C 149.039062 135.441406 148.875 134.964844 148.691406 134.441406 C 148.691406 134.332031 148.515625 134.265625 148.175781 133.945312 C 147.019531 139.480469 144.527344 144.277344 142.597656 149.289062 C 138.210938 160.703125 139.859375 171.382812 146.816406 181.25 C 147.535156 182.289062 148.292969 183.300781 149.039062 184.320312 C 149.109375 184.417969 149.261719 184.445312 149.515625 184.574219 C 149.234375 182.144531 148.542969 179.882812 148.332031 177.523438 C 147.757812 170.578125 149.164062 163.925781 150.574219 157.128906 C 151.351562 153.601562 151.628906 150.039062 151.398438 146.4375 C 151.171875 142.832031 150.445312 139.332031 149.222656 135.9375 Z M 149.222656 135.9375 " fill-opacity="1" fill-rule="nonzero"/></g></g><g clip-path="url(#4cab3a8619)"><g clip-path="url(#d4670108ec)"><path fill="#f8b571" d="M 145.082031 127.207031 C 127.253906 143.046875 120.820312 164.1875 131.921875 186.554688 C 128.070312 165.148438 134.792969 146.066406 145.082031 127.207031 Z M 145.082031 127.207031 " fill-opacity="1" fill-rule="nonzero"/></g></g><g clip-path="url(#36911b88b1)"><g clip-path="url(#98e5a5aa77)"><path fill="#f8b571" d="M 157.152344 91.484375 C 153.960938 85.917969 145.371094 81.191406 138.160156 81.238281 C 130.046875 81.289062 123.730469 84.746094 118.878906 91.136719 C 131.628906 84.335938 144.304688 85.523438 157.152344 91.484375 Z M 157.152344 91.484375 " fill-opacity="1" fill-rule="nonzero"/></g></g><g clip-path="url(#e5c23e9f34)"><g clip-path="url(#f1f8612979)"><path fill="#f8b571" d="M 119.210938 164.070312 C 119.855469 160.347656 120.527344 156.632812 121.226562 152.921875 C 123.78125 144.714844 127.683594 137.214844 132.941406 130.417969 C 135.9375 126.4375 138.964844 122.464844 141.605469 118.222656 C 143.917969 114.695312 145.695312 110.917969 146.945312 106.886719 C 141.789062 110.917969 135.96875 110.949219 130.359375 111.648438 C 116.125 113.433594 105.738281 120.496094 100.1875 133.90625 C 97.015625 141.578125 97.277344 149.640625 98.609375 157.699219 C 99.113281 160.734375 99.835938 163.71875 100.78125 166.644531 C 102.382812 155.574219 105.082031 145.5625 113.570312 138.265625 C 114.328125 137.449219 115.261719 136.972656 116.367188 136.828125 C 113.542969 142.539062 111.117188 148.230469 110.4375 154.464844 C 110.214844 155.757812 110.6875 157.136719 109.992188 158.351562 C 109.453125 161.34375 109.453125 164.332031 109.992188 167.324219 C 110.785156 168.898438 110.386719 170.644531 110.679688 172.308594 C 111.40625 176.71875 112.777344 180.917969 114.78125 184.914062 C 116.789062 188.90625 119.347656 192.507812 122.449219 195.722656 C 122.578125 195.847656 122.800781 195.878906 123.285156 196.082031 C 121.324219 189.796875 119.957031 183.390625 119.179688 176.851562 Z M 119.210938 164.070312 " fill-opacity="1" fill-rule="nonzero"/></g></g><path fill="#f8b571" d="M 222.226562 128.207031 L 209.691406 146.367188 L 210.914062 136.34375 C 210.550781 136.398438 210.226562 136.3125 209.941406 136.082031 C 209.941406 135.410156 209.941406 134.75 209.941406 134.082031 C 209.738281 133.519531 210.011719 132.246094 208.75 133.292969 C 208 135.0625 206.644531 136.527344 206.273438 138.480469 C 205.820312 140.734375 205.746094 143 206.042969 145.277344 C 207.011719 147.804688 208.097656 150.308594 209.109375 152.84375 C 209.308594 153.289062 209.4375 153.753906 209.488281 154.238281 C 209.539062 154.726562 209.511719 155.207031 209.40625 155.683594 C 209.300781 156.160156 209.121094 156.609375 208.871094 157.027344 C 208.617188 157.445312 208.304688 157.8125 207.933594 158.128906 C 205.816406 159.960938 203.976562 162.042969 202.421875 164.371094 C 201.695312 165.585938 200.355469 165.023438 199.316406 164.761719 C 197.65625 164.226562 196.125 163.449219 194.714844 162.421875 C 193.578125 161.496094 192.355469 160.695312 191.058594 160.011719 C 188.332031 158.964844 187.621094 157.03125 187.992188 154.398438 C 188.046875 154.074219 188.046875 153.75 187.992188 153.425781 C 187.652344 152.179688 187.769531 150.976562 188.339844 149.8125 L 197.445312 145.734375 L 197.480469 145.734375 C 197.632812 145.773438 197.785156 145.792969 197.9375 145.792969 C 198.402344 145.75 198.832031 145.609375 199.234375 145.371094 C 199.632812 145.136719 199.964844 144.828125 200.226562 144.445312 L 201.527344 143.859375 L 201.527344 134.605469 L 200.042969 136.277344 L 199.964844 136.167969 C 199.964844 136.257812 199.964844 136.335938 199.964844 136.410156 L 196.753906 142.121094 C 195.722656 142.378906 194.671875 142.488281 193.609375 142.453125 C 191.667969 142.609375 189.824219 142.9375 187.933594 143.21875 C 188.078125 143.453125 188.171875 143.707031 188.222656 143.976562 C 188.273438 144.246094 188.269531 144.515625 188.21875 144.785156 C 188.167969 145.054688 188.070312 145.304688 187.925781 145.535156 C 187.78125 145.769531 187.597656 145.96875 187.378906 146.132812 C 185.777344 144.550781 186.828125 143.21875 186.828125 143.21875 C 184.886719 142.9375 183.050781 142.609375 181.148438 142.453125 C 180.109375 142.484375 179.085938 142.375 178.074219 142.132812 L 174.773438 136.304688 L 174.773438 136.140625 L 174.726562 136.21875 L 173.222656 134.605469 L 173.222656 139.644531 C 173.207031 139.925781 173.207031 140.210938 173.222656 140.492188 C 173.222656 140.78125 173.222656 141.082031 173.222656 141.375 L 173.222656 143.8125 L 174.425781 144.355469 C 174.722656 144.828125 175.125 145.179688 175.628906 145.421875 C 176.128906 145.660156 176.65625 145.75 177.210938 145.6875 L 177.335938 145.6875 L 186.371094 149.746094 C 186.960938 150.914062 187.082031 152.128906 186.738281 153.386719 C 186.683594 153.710938 186.683594 154.035156 186.738281 154.359375 C 187.109375 156.992188 186.398438 158.925781 183.671875 159.972656 C 182.375 160.65625 181.15625 161.464844 180.015625 162.390625 C 178.605469 163.417969 177.074219 164.199219 175.414062 164.730469 C 174.375 164.992188 173.039062 165.558594 172.308594 164.34375 C 170.753906 162.011719 168.917969 159.929688 166.796875 158.097656 C 166.425781 157.78125 166.113281 157.414062 165.863281 156.996094 C 165.609375 156.578125 165.429688 156.132812 165.324219 155.652344 C 165.21875 155.175781 165.191406 154.695312 165.242188 154.210938 C 165.292969 153.726562 165.421875 153.257812 165.625 152.816406 C 166.59375 150.28125 167.671875 147.773438 168.691406 145.25 C 168.988281 142.972656 168.910156 140.703125 168.457031 138.453125 C 168.089844 136.507812 166.730469 135.03125 165.984375 133.265625 C 165.78125 133.050781 165.535156 132.917969 165.246094 132.867188 C 164.835938 132.867188 164.933594 133.644531 164.789062 134.050781 C 164.789062 134.722656 164.789062 135.382812 164.742188 136.050781 L 164.429688 136.226562 L 165.664062 146.335938 L 155.203125 131.253906 C 154.066406 130.035156 153.203125 128.648438 152.609375 127.09375 C 152.015625 125.539062 151.734375 123.925781 151.765625 122.261719 C 150.6875 116.433594 149.824219 108.246094 153.097656 106.886719 C 153.835938 106.578125 154.546875 106.214844 155.230469 105.800781 C 155.523438 109.035156 156.878906 112.976562 161.566406 114.316406 C 169.992188 116.726562 167.078125 116.261719 167.078125 116.261719 C 167.078125 116.261719 162.042969 116.976562 159.160156 116.261719 C 159.160156 116.261719 165.429688 121.746094 172.039062 119.851562 C 178.648438 117.960938 180.773438 120.25 180.773438 120.25 L 179.800781 117.035156 C 179.753906 116.878906 179.714844 116.714844 179.683594 116.550781 C 179.53125 115.636719 178.199219 111.0625 166.566406 107.808594 C 163.441406 107.054688 160.484375 105.878906 157.695312 104.285156 L 158.152344 104.011719 C 158.09375 103.433594 158.167969 102.867188 158.375 102.324219 C 158.949219 100.933594 159.839844 99.800781 161.054688 98.914062 C 161.425781 98.621094 161.773438 98.296875 162.089844 97.941406 C 166.488281 99.4375 172.765625 102.070312 175.9375 105.820312 C 175.367188 105.121094 169.691406 98.320312 163.246094 96.109375 C 163.578125 95.296875 163.757812 94.457031 163.78125 93.582031 C 163.804688 92.707031 163.671875 91.855469 163.382812 91.027344 C 163.261719 90.714844 163.222656 90.390625 163.257812 90.058594 C 167.03125 92.144531 174.542969 96.789062 177.316406 102.070312 C 177.035156 101.507812 173.4375 94.398438 168.109375 90.5625 C 170.28125 91.136719 172.679688 91.855469 174.328125 92.289062 C 177.667969 95.503906 182.480469 100.835938 183.78125 105.808594 C 183.558594 104.886719 181.277344 95.769531 176.085938 91.125 C 175.878906 90.511719 175.851562 89.890625 176.007812 89.261719 C 179.539062 90.910156 195.203125 90.910156 198.734375 89.261719 C 198.859375 89.75 198.859375 90.238281 198.734375 90.726562 C 193.300781 95.144531 190.875 104.546875 190.582031 105.75 C 191.882812 100.894531 196.558594 95.652344 199.890625 92.417969 C 201.382812 92.039062 203.769531 91.328125 206.03125 90.71875 C 200.917969 94.523438 197.414062 101.304688 197.046875 102.042969 C 199.957031 96.621094 207.71875 91.882812 211.398438 89.882812 C 211.523438 90.085938 211.523438 90.445312 211.339844 91.066406 C 210.765625 92.734375 210.792969 94.394531 211.425781 96.039062 C 204.75 98.117188 198.8125 105.332031 198.394531 105.847656 C 201.644531 101.964844 208.097656 99.324219 212.550781 97.847656 C 212.886719 98.25 213.261719 98.621094 213.667969 98.953125 C 214.882812 99.835938 215.773438 100.972656 216.347656 102.363281 C 216.503906 102.792969 216.585938 103.242188 216.589844 103.703125 L 217.027344 103.933594 C 215.503906 105.050781 212.679688 106.410156 207.496094 107.820312 C 195.851562 111.054688 194.523438 115.589844 194.375 116.5625 C 194.347656 116.726562 194.308594 116.886719 194.261719 117.046875 L 193.289062 120.261719 C 193.289062 120.261719 195.464844 117.960938 202.023438 119.863281 C 208.582031 121.765625 214.949219 116.242188 214.949219 116.242188 C 212.039062 116.960938 207.03125 116.242188 207.03125 116.242188 C 207.03125 116.242188 204.121094 116.726562 212.542969 114.296875 C 217.589844 112.859375 218.78125 108.402344 218.917969 105.0625 C 219.972656 105.761719 221.078125 106.363281 222.238281 106.867188 C 227.410156 109.035156 222.226562 128.207031 222.226562 128.207031 Z M 222.226562 128.207031 " fill-opacity="1" fill-rule="nonzero"/><path fill="#000000" d="M 218.722656 101.605469 C 218.722656 101.285156 218.636719 101.097656 218.636719 101.097656 C 218.710938 101.261719 218.742188 101.429688 218.722656 101.605469 Z M 218.722656 101.605469 " fill-opacity="1" fill-rule="nonzero"/><path fill="#000000" d="M 155.464844 101.097656 C 155.464844 101.097656 155.464844 101.285156 155.375 101.605469 C 155.359375 101.429688 155.386719 101.261719 155.464844 101.097656 Z M 155.464844 101.097656 " fill-opacity="1" fill-rule="nonzero"/><path fill="#000000" d="M 179.511719 155.273438 L 177.714844 156.621094 L 179.78125 157.496094 Z M 179.511719 155.273438 " fill-opacity="1" fill-rule="nonzero"/><path fill="#000000" d="M 172.417969 156 L 170.621094 157.351562 L 172.6875 158.234375 Z M 172.417969 156 " fill-opacity="1" fill-rule="nonzero"/><path fill="#000000" d="M 175.113281 149.667969 L 173.320312 151.019531 L 175.386719 151.902344 Z M 175.113281 149.667969 " fill-opacity="1" fill-rule="nonzero"/><path fill="#000000" d="M 194.773438 155.273438 L 196.570312 156.621094 L 194.511719 157.496094 Z M 194.773438 155.273438 " fill-opacity="1" fill-rule="nonzero"/><path fill="#000000" d="M 201.867188 156 L 203.664062 157.351562 L 201.597656 158.234375 Z M 201.867188 156 " fill-opacity="1" fill-rule="nonzero"/><path fill="#000000" d="M 199.171875 149.667969 L 200.964844 151.019531 L 198.898438 151.902344 Z M 199.171875 149.667969 " fill-opacity="1" fill-rule="nonzero"/><g fill="#ffffff" fill-opacity="1"><g transform="translate(47.239428, 268.455774)"><g><path d="M 14.578125 -10.84375 L 18.578125 -37.375 L 26.75 -37.375 L 26.75 0 L 21.203125 0 L 21.203125 -26.796875 L 17.140625 0 L 11.578125 0 L 7.203125 -26.421875 L 7.203125 0 L 2.078125 0 L 2.078125 -37.375 L 10.25 -37.375 Z M 14.578125 -10.84375 "/></g></g></g><g fill="#ffffff" fill-opacity="1"><g transform="translate(91.025186, 268.455774)"><g><path d="M 7.734375 -37.375 L 7.734375 -8.546875 C 7.734375 -7.191406 8.007812 -6.242188 8.5625 -5.703125 C 9.113281 -5.171875 9.851562 -4.90625 10.78125 -4.90625 C 11.707031 -4.90625 12.445312 -5.171875 13 -5.703125 C 13.550781 -6.242188 13.828125 -7.191406 13.828125 -8.546875 L 13.828125 -37.375 L 19.375 -37.375 L 19.375 -8.921875 C 19.375 -5.890625 18.632812 -3.5625 17.15625 -1.9375 C 15.6875 -0.320312 13.507812 0.484375 10.625 0.484375 C 7.738281 0.484375 5.554688 -0.320312 4.078125 -1.9375 C 2.609375 -3.5625 1.875 -5.890625 1.875 -8.921875 L 1.875 -37.375 Z M 7.734375 -37.375 "/></g></g></g><g fill="#ffffff" fill-opacity="1"><g transform="translate(127.17552, 268.455774)"><g><path d="M 0.421875 -37.375 L 18.578125 -37.375 L 18.578125 -32.03125 L 12.4375 -32.03125 L 12.4375 0 L 6.5625 0 L 6.5625 -32.03125 L 0.421875 -32.03125 Z M 0.421875 -37.375 "/></g></g></g><g fill="#ffffff" fill-opacity="1"><g transform="translate(161.083288, 268.455774)"><g><path d="M 21.140625 0 L 15.21875 0 L 14.203125 -6.78125 L 7 -6.78125 L 5.984375 0 L 0.59375 0 L 6.5625 -37.375 L 15.15625 -37.375 Z M 7.734375 -11.859375 L 13.40625 -11.859375 L 10.578125 -30.75 Z M 7.734375 -11.859375 "/></g></g></g><g fill="#ffffff" fill-opacity="1"><g transform="translate(197.714179, 268.455774)"><g><path d="M 7.640625 -12.390625 L 0.21875 -37.375 L 6.359375 -37.375 L 10.84375 -20.34375 L 15.328125 -37.375 L 20.921875 -37.375 L 13.515625 -12.390625 L 13.515625 0 L 7.640625 0 Z M 7.640625 -12.390625 "/></g></g></g><g fill="#ffffff" fill-opacity="1"><g transform="translate(233.757733, 268.455774)"><g><path d="M 7.640625 -12.390625 L 0.21875 -37.375 L 6.359375 -37.375 L 10.84375 -20.34375 L 15.328125 -37.375 L 20.921875 -37.375 L 13.515625 -12.390625 L 13.515625 0 L 7.640625 0 Z M 7.640625 -12.390625 "/></g></g></g><g fill="#ffffff" fill-opacity="1"><g transform="translate(269.801288, 268.455774)"><g><path d="M 21.140625 0 L 15.21875 0 L 14.203125 -6.78125 L 7 -6.78125 L 5.984375 0 L 0.59375 0 L 6.5625 -37.375 L 15.15625 -37.375 Z M 7.734375 -11.859375 L 13.40625 -11.859375 L 10.578125 -30.75 Z M 7.734375 -11.859375 "/></g></g></g><g fill="#ffffff" fill-opacity="1"><g transform="translate(306.432179, 268.455774)"><g><path d="M 11 -37.375 C 14.0625 -37.375 16.273438 -36.660156 17.640625 -35.234375 C 19.015625 -33.816406 19.703125 -31.664062 19.703125 -28.78125 L 19.703125 -27.4375 C 19.703125 -25.519531 19.398438 -23.9375 18.796875 -22.6875 C 18.191406 -21.445312 17.226562 -20.523438 15.90625 -19.921875 C 17.507812 -19.304688 18.640625 -18.3125 19.296875 -16.9375 C 19.953125 -15.570312 20.28125 -13.894531 20.28125 -11.90625 L 20.28125 -8.859375 C 20.28125 -5.972656 19.53125 -3.773438 18.03125 -2.265625 C 16.539062 -0.753906 14.320312 0 11.375 0 L 2.140625 0 L 2.140625 -37.375 Z M 8.015625 -16.8125 L 8.015625 -5.34375 L 11.375 -5.34375 C 12.363281 -5.34375 13.117188 -5.609375 13.640625 -6.140625 C 14.160156 -6.671875 14.421875 -7.628906 14.421875 -9.015625 L 14.421875 -12.28125 C 14.421875 -14.019531 14.125 -15.207031 13.53125 -15.84375 C 12.945312 -16.488281 11.976562 -16.8125 10.625 -16.8125 Z M 8.015625 -32.03125 L 8.015625 -22.15625 L 10.296875 -22.15625 C 11.398438 -22.15625 12.265625 -22.4375 12.890625 -23 C 13.515625 -23.570312 13.828125 -24.609375 13.828125 -26.109375 L 13.828125 -28.1875 C 13.828125 -29.539062 13.585938 -30.519531 13.109375 -31.125 C 12.628906 -31.726562 11.875 -32.03125 10.84375 -32.03125 Z M 8.015625 -32.03125 "/></g></g></g><g fill="#f8b571" fill-opacity="1"><g transform="translate(127.784198, 301.400399)"><g><path d="M 5.875 0 L 3.296875 -8.390625 L 3.234375 -8.390625 C 3.328125 -6.679688 3.375 -5.539062 3.375 -4.96875 L 3.375 0 L 1.34375 0 L 1.34375 -10.6875 L 4.421875 -10.6875 L 6.953125 -2.515625 L 7 -2.515625 L 9.6875 -10.6875 L 12.765625 -10.6875 L 12.765625 0 L 10.65625 0 L 10.65625 -5.0625 C 10.65625 -5.300781 10.65625 -5.570312 10.65625 -5.875 C 10.664062 -6.1875 10.703125 -7.019531 10.765625 -8.375 L 10.703125 -8.375 L 7.9375 0 Z M 5.875 0 "/></g></g></g><g fill="#f8b571" fill-opacity="1"><g transform="translate(140.401646, 301.400399)"><g><path d="M 10.046875 -10.6875 L 10.046875 -3.765625 C 10.046875 -2.984375 9.867188 -2.289062 9.515625 -1.6875 C 9.160156 -1.09375 8.648438 -0.640625 7.984375 -0.328125 C 7.316406 -0.015625 6.523438 0.140625 5.609375 0.140625 C 4.234375 0.140625 3.164062 -0.207031 2.40625 -0.90625 C 1.644531 -1.613281 1.265625 -2.578125 1.265625 -3.796875 L 1.265625 -10.6875 L 3.53125 -10.6875 L 3.53125 -4.140625 C 3.53125 -3.316406 3.695312 -2.710938 4.03125 -2.328125 C 4.363281 -1.941406 4.910156 -1.75 5.671875 -1.75 C 6.410156 -1.75 6.945312 -1.941406 7.28125 -2.328125 C 7.613281 -2.722656 7.78125 -3.332031 7.78125 -4.15625 L 7.78125 -10.6875 Z M 10.046875 -10.6875 "/></g></g></g><g fill="#f8b571" fill-opacity="1"><g transform="translate(150.222685, 301.400399)"><g><path d="M 5.46875 0 L 3.203125 0 L 3.203125 -8.796875 L 0.296875 -8.796875 L 0.296875 -10.6875 L 8.375 -10.6875 L 8.375 -8.796875 L 5.46875 -8.796875 Z M 5.46875 0 "/></g></g></g><g fill="#f8b571" fill-opacity="1"><g transform="translate(157.400642, 301.400399)"><g><path d="M 7.890625 0 L 7.109375 -2.546875 L 3.21875 -2.546875 L 2.4375 0 L 0 0 L 3.765625 -10.734375 L 6.546875 -10.734375 L 10.328125 0 Z M 6.578125 -4.4375 C 5.859375 -6.75 5.453125 -8.054688 5.359375 -8.359375 C 5.265625 -8.660156 5.203125 -8.898438 5.171875 -9.078125 C 5.003906 -8.453125 4.539062 -6.90625 3.78125 -4.4375 Z M 6.578125 -4.4375 "/></g></g></g><g fill="#f8b571" fill-opacity="1"><g transform="translate(166.236001, 301.400399)"><g><path d="M 4.671875 -6.28125 L 6.90625 -10.6875 L 9.34375 -10.6875 L 5.796875 -4.15625 L 5.796875 0 L 3.546875 0 L 3.546875 -4.078125 L 0 -10.6875 L 2.453125 -10.6875 Z M 4.671875 -6.28125 "/></g></g></g><g fill="#f8b571" fill-opacity="1"><g transform="translate(174.08568, 301.400399)"><g><path d="M 4.671875 -6.28125 L 6.90625 -10.6875 L 9.34375 -10.6875 L 5.796875 -4.15625 L 5.796875 0 L 3.546875 0 L 3.546875 -4.078125 L 0 -10.6875 L 2.453125 -10.6875 Z M 4.671875 -6.28125 "/></g></g></g><g fill="#f8b571" fill-opacity="1"><g transform="translate(181.935359, 301.400399)"><g><path d="M 7.890625 0 L 7.109375 -2.546875 L 3.21875 -2.546875 L 2.4375 0 L 0 0 L 3.765625 -10.734375 L 6.546875 -10.734375 L 10.328125 0 Z M 6.578125 -4.4375 C 5.859375 -6.75 5.453125 -8.054688 5.359375 -8.359375 C 5.265625 -8.660156 5.203125 -8.898438 5.171875 -9.078125 C 5.003906 -8.453125 4.539062 -6.90625 3.78125 -4.4375 Z M 6.578125 -4.4375 "/></g></g></g><g fill="#f8b571" fill-opacity="1"><g transform="translate(190.770718, 301.400399)"><g><path d="M 1.34375 -10.6875 L 4.671875 -10.6875 C 6.179688 -10.6875 7.28125 -10.46875 7.96875 -10.03125 C 8.65625 -9.601562 9 -8.921875 9 -7.984375 C 9 -7.347656 8.847656 -6.820312 8.546875 -6.40625 C 8.242188 -6 7.847656 -5.753906 7.359375 -5.671875 L 7.359375 -5.59375 C 8.035156 -5.445312 8.519531 -5.164062 8.8125 -4.75 C 9.113281 -4.332031 9.265625 -3.78125 9.265625 -3.09375 C 9.265625 -2.125 8.910156 -1.363281 8.203125 -0.8125 C 7.503906 -0.269531 6.550781 0 5.34375 0 L 1.34375 0 Z M 3.609375 -6.453125 L 4.921875 -6.453125 C 5.535156 -6.453125 5.976562 -6.546875 6.25 -6.734375 C 6.53125 -6.929688 6.671875 -7.25 6.671875 -7.6875 C 6.671875 -8.09375 6.519531 -8.382812 6.21875 -8.5625 C 5.925781 -8.738281 5.453125 -8.828125 4.796875 -8.828125 L 3.609375 -8.828125 Z M 3.609375 -4.65625 L 3.609375 -1.875 L 5.09375 -1.875 C 5.707031 -1.875 6.164062 -1.992188 6.46875 -2.234375 C 6.769531 -2.472656 6.921875 -2.835938 6.921875 -3.328125 C 6.921875 -4.210938 6.285156 -4.65625 5.015625 -4.65625 Z M 3.609375 -4.65625 "/></g></g></g><g fill="#f8b571" fill-opacity="1"><g transform="translate(199.335928, 301.400399)"><g/></g></g><g fill="#f8b571" fill-opacity="1"><g transform="translate(201.738815, 301.400399)"><g><path d="M 1.34375 0 L 1.34375 -10.6875 L 3.609375 -10.6875 L 3.609375 0 Z M 1.34375 0 "/></g></g></g><g fill="#f8b571" fill-opacity="1"><g transform="translate(205.207697, 301.400399)"><g><path d="M 5.875 0 L 3.296875 -8.390625 L 3.234375 -8.390625 C 3.328125 -6.679688 3.375 -5.539062 3.375 -4.96875 L 3.375 0 L 1.34375 0 L 1.34375 -10.6875 L 4.421875 -10.6875 L 6.953125 -2.515625 L 7 -2.515625 L 9.6875 -10.6875 L 12.765625 -10.6875 L 12.765625 0 L 10.65625 0 L 10.65625 -5.0625 C 10.65625 -5.300781 10.65625 -5.570312 10.65625 -5.875 C 10.664062 -6.1875 10.703125 -7.019531 10.765625 -8.375 L 10.703125 -8.375 L 7.9375 0 Z M 5.875 0 "/></g></g></g><g fill="#f8b571" fill-opacity="1"><g transform="translate(217.825145, 301.400399)"><g><path d="M 3.609375 -5.9375 L 4.34375 -5.9375 C 5.0625 -5.9375 5.585938 -6.054688 5.921875 -6.296875 C 6.265625 -6.535156 6.4375 -6.910156 6.4375 -7.421875 C 6.4375 -7.929688 6.257812 -8.289062 5.90625 -8.5 C 5.5625 -8.71875 5.023438 -8.828125 4.296875 -8.828125 L 3.609375 -8.828125 Z M 3.609375 -4.09375 L 3.609375 0 L 1.34375 0 L 1.34375 -10.6875 L 4.453125 -10.6875 C 5.910156 -10.6875 6.988281 -10.421875 7.6875 -9.890625 C 8.382812 -9.359375 8.734375 -8.554688 8.734375 -7.484375 C 8.734375 -6.859375 8.554688 -6.300781 8.203125 -5.8125 C 7.859375 -5.320312 7.367188 -4.9375 6.734375 -4.65625 C 8.347656 -2.25 9.394531 -0.695312 9.875 0 L 7.375 0 L 4.8125 -4.09375 Z M 3.609375 -4.09375 "/></g></g></g><g fill="#f8b571" fill-opacity="1"><g transform="translate(226.215123, 301.400399)"><g><path d="M 7.890625 0 L 7.109375 -2.546875 L 3.21875 -2.546875 L 2.4375 0 L 0 0 L 3.765625 -10.734375 L 6.546875 -10.734375 L 10.328125 0 Z M 6.578125 -4.4375 C 5.859375 -6.75 5.453125 -8.054688 5.359375 -8.359375 C 5.265625 -8.660156 5.203125 -8.898438 5.171875 -9.078125 C 5.003906 -8.453125 4.539062 -6.90625 3.78125 -4.4375 Z M 6.578125 -4.4375 "/></g></g></g><g fill="#f8b571" fill-opacity="1"><g transform="translate(235.050476, 301.400399)"><g><path d="M 10.828125 0 L 7.9375 0 L 3.296875 -8.078125 L 3.234375 -8.078125 C 3.328125 -6.648438 3.375 -5.632812 3.375 -5.03125 L 3.375 0 L 1.34375 0 L 1.34375 -10.6875 L 4.203125 -10.6875 L 8.84375 -2.6875 L 8.890625 -2.6875 C 8.816406 -4.070312 8.78125 -5.050781 8.78125 -5.625 L 8.78125 -10.6875 L 10.828125 -10.6875 Z M 10.828125 0 "/></g></g></g><path stroke-linecap="round" transform="matrix(1.498165, 0, 0, 1.5, 48.750649, 242.072329)" fill="none" stroke-linejoin="miter" d="M 0.500179 0.0012599 L 184.733349 0.0012599 " stroke="#000000" stroke-width="1" stroke-opacity="1" stroke-miterlimit="4"/><path stroke-linecap="round" transform="matrix(1.498165, 0, 0, 1.5, 48.750649, 253.991643)" fill="none" stroke-linejoin="miter" d="M 0.500179 0.000363319 L 184.733349 0.000363319 " stroke="#000000" stroke-width="1" stroke-opacity="1" stroke-miterlimit="4"/><path stroke-linecap="round" transform="matrix(1.498165, 0, 0, 1.5, 48.750649, 268.404827)" fill="none" stroke-linejoin="miter" d="M 0.500179 0.00094855 L 184.733349 0.00094855 " stroke="#000000" stroke-width="1" stroke-opacity="1" stroke-miterlimit="4"/></svg>